<?xml version="1.0" standalone="no"?>
<!DOCTYPE svg PUBLIC "-//W3C//DTD SVG 20010904//EN"
 "http://www.w3.org/TR/2001/REC-SVG-20010904/DTD/svg10.dtd">
<svg version="1.0" xmlns="http://www.w3.org/2000/svg"
 width="512.000000pt" height="512.000000pt" viewBox="0 0 512.000000 512.000000"
 preserveAspectRatio="xMidYMid meet">

<g transform="translate(0.000000,512.000000) scale(0.100000,-0.100000)"
fill="#000000" stroke="none">
<path d="M3865 4934 c-119 -26 -226 -85 -315 -172 -115 -115 -164 -211 -203
-400 l-22 -103 -53 -18 c-162 -55 -282 -219 -282 -385 0 -65 22 -92 82 -101
24 -3 195 -5 381 -3 l339 3 24 28 c27 32 30 67 13 149 -30 140 -139 264 -272
309 -50 17 -52 19 -49 51 11 118 80 265 162 348 67 67 138 106 227 125 291 62
586 -112 686 -405 l22 -65 3 -952 3 -953 -1285 0 -1284 0 -16 46 c-47 138
-159 242 -301 280 -27 8 -62 14 -76 14 -15 0 -37 12 -55 31 -124 133 -325 174
-488 100 -69 -31 -177 -127 -190 -169 -6 -19 -9 -19 -89 9 -161 56 -310 27
-435 -86 -51 -46 -122 -166 -122 -206 0 -14 -7 -19 -27 -19 -77 -2 -169 -60
-207 -131 -72 -132 -25 -288 106 -353 43 -22 66 -26 133 -26 l82 0 112 -443
c62 -243 121 -471 133 -507 39 -120 113 -225 211 -296 103 -76 194 -109 334
-120 46 -4 83 -8 83 -11 0 -2 -25 -53 -55 -113 -64 -127 -69 -167 -29 -199 30
-24 52 -26 89 -9 19 8 46 52 106 170 l80 158 1184 0 1185 0 80 -160 c44 -87
88 -164 99 -170 32 -17 56 -12 85 19 41 43 37 80 -23 200 -29 56 -49 106 -46
111 4 6 21 10 39 10 99 0 254 77 352 175 114 115 125 145 267 702 l122 483 80
0 c67 0 90 4 133 26 203 101 181 393 -35 470 -21 7 -66 13 -100 14 l-62 0 -4
958 c-3 1080 2 1007 -84 1182 -40 81 -61 109 -142 190 -108 107 -201 163 -331
200 -101 28 -262 35 -355 14z m-340 -862 c53 -26 89 -58 113 -101 l23 -41
-240 0 c-141 0 -241 4 -241 9 0 21 69 98 107 119 74 41 172 47 238 14z m-2119
-1370 c23 -11 55 -38 73 -59 72 -85 69 -83 130 -83 31 0 73 -5 93 -10 52 -15
119 -68 146 -118 l23 -42 -710 0 c-562 0 -711 3 -711 13 1 28 70 105 116 127
100 49 203 33 300 -46 84 -69 139 -57 169 39 32 97 89 162 172 193 51 19 148
12 199 -14z m3498 -493 c49 -23 58 -97 16 -139 -20 -20 -43 -20 -2360 -20
-2317 0 -2340 0 -2360 20 -41 41 -34 115 13 138 32 16 4657 16 4691 1z m-329
-361 c-67 -309 -210 -883 -232 -927 -58 -115 -189 -210 -318 -231 -83 -14
-2829 -13 -2913 0 -137 23 -265 118 -322 242 -22 48 -250 907 -250 942 0 3
909 6 2021 6 l2021 0 -7 -32z"/>
<path d="M3012 3557 c-29 -30 -31 -124 -4 -156 44 -55 134 -27 148 45 8 45
-11 110 -36 124 -34 18 -85 12 -108 -13z"/>
<path d="M3351 3554 c-29 -37 -29 -126 -1 -154 44 -44 118 -33 140 21 18 43 7
119 -20 141 -35 28 -94 24 -119 -8z"/>
<path d="M3695 3555 c-33 -32 -36 -120 -5 -153 41 -44 116 -36 139 14 20 45
14 112 -14 139 -33 34 -87 34 -120 0z"/>
<path d="M3016 3219 c-24 -19 -26 -26 -26 -105 0 -77 2 -87 25 -109 31 -32 75
-32 111 -2 45 39 47 175 2 217 -28 26 -78 26 -112 -1z"/>
<path d="M3355 3215 c-22 -22 -25 -32 -25 -105 0 -73 3 -83 25 -105 34 -35 78
-33 116 4 26 27 29 36 29 96 0 69 -17 118 -45 129 -35 13 -76 6 -100 -19z"/>
<path d="M3695 3215 c-22 -22 -25 -32 -25 -105 0 -73 3 -83 25 -105 16 -17 35
-25 57 -25 64 1 88 39 88 140 0 62 -3 74 -25 95 -33 34 -87 34 -120 0z"/>
<path d="M3035 2849 c-35 -20 -45 -42 -45 -99 0 -46 4 -61 23 -78 25 -24 75
-29 107 -12 43 23 50 138 12 174 -24 21 -72 29 -97 15z"/>
<path d="M3375 2849 c-35 -20 -45 -42 -45 -99 0 -46 4 -61 23 -78 29 -28 86
-29 118 -3 21 16 24 28 24 80 0 47 -4 65 -20 80 -25 25 -74 35 -100 20z"/>
<path d="M3715 2848 c-34 -20 -44 -41 -45 -94 0 -72 26 -104 85 -104 35 0 48
5 64 26 24 30 28 97 10 137 -19 41 -74 58 -114 35z"/>
</g>
</svg>
