<?xml version="1.0" standalone="no"?>
<!DOCTYPE svg PUBLIC "-//W3C//DTD SVG 20010904//EN"
 "http://www.w3.org/TR/2001/REC-SVG-20010904/DTD/svg10.dtd">
<svg version="1.0" xmlns="http://www.w3.org/2000/svg"
 width="512.000000pt" height="512.000000pt" viewBox="0 0 512.000000 512.000000"
 preserveAspectRatio="xMidYMid meet">

<g transform="translate(0.000000,512.000000) scale(0.100000,-0.100000)"
fill="#000000" stroke="none">
<path d="M1359 4871 c-51 -51 -37 -130 28 -157 42 -18 94 -5 118 29 43 62 -5
157 -80 157 -27 0 -44 -8 -66 -29z"/>
<path d="M3497 4890 c-257 -41 -499 -146 -691 -301 -78 -62 -236 -225 -236
-242 0 -5 -45 38 -101 96 -154 163 -304 269 -494 348 -52 22 -109 39 -129 39
-49 0 -86 -34 -93 -86 -5 -36 -1 -45 23 -71 16 -17 60 -42 99 -58 374 -144
662 -489 750 -900 107 -498 -151 -1053 -607 -1308 -312 -175 -703 -199 -1044
-66 -163 64 -271 136 -409 274 -132 132 -199 229 -266 384 -162 376 -121 817
109 1159 135 201 333 364 551 452 47 18 90 43 101 58 39 48 20 120 -39 148
-34 16 -38 16 -86 -1 -316 -111 -610 -369 -769 -675 -404 -780 -33 -1716 796
-2009 147 -51 291 -75 463 -74 239 0 433 46 643 153 149 76 261 161 391 295
l103 108 41 -49 c156 -188 389 -348 629 -433 287 -101 639 -101 926 0 234 83
440 221 601 402 243 274 375 641 358 1002 -30 645 -476 1184 -1105 1331 -87
21 -139 26 -282 29 -96 2 -201 0 -233 -5z m403 -206 c656 -113 1104 -730 1006
-1384 -40 -265 -157 -494 -350 -686 -116 -115 -237 -199 -369 -257 -410 -177
-877 -121 -1233 147 -69 52 -210 195 -248 253 l-26 39 30 68 c17 37 40 92 51
123 l21 55 32 -56 c134 -240 358 -411 634 -483 120 -31 323 -35 437 -10 303
67 549 254 690 520 139 264 152 579 35 860 -92 222 -305 435 -527 527 -147 62
-212 74 -393 74 -193 1 -273 -16 -429 -89 -189 -90 -332 -221 -445 -409 l-35
-59 -11 27 c-5 15 -10 30 -10 32 0 3 -19 46 -41 95 l-42 89 56 72 c125 163
292 291 485 373 74 31 246 79 317 88 81 11 279 6 365 -9z m-5 -428 c272 -75
495 -300 572 -576 28 -102 25 -321 -6 -420 -89 -286 -294 -486 -576 -561 -101
-27 -278 -30 -377 -6 -331 80 -572 348 -618 687 -55 402 223 795 626 884 88
20 294 15 379 -8z"/>
<path d="M3647 4099 c-26 -15 -47 -63 -47 -107 0 -34 -4 -41 -29 -52 -39 -16
-98 -76 -124 -125 -12 -25 -22 -66 -25 -110 -4 -64 -1 -75 29 -134 42 -79 89
-114 226 -167 109 -42 143 -69 143 -112 0 -41 -39 -95 -80 -109 -47 -17 -122
-8 -181 23 -61 31 -90 30 -127 -1 -35 -29 -47 -70 -33 -108 14 -35 81 -83 147
-104 48 -15 54 -20 54 -44 0 -41 20 -79 51 -95 75 -38 149 11 149 101 0 29 5
36 44 55 55 26 121 96 149 158 16 35 22 67 22 122 0 65 -4 82 -30 129 -45 82
-100 120 -250 177 -38 15 -80 36 -92 47 -47 42 -13 122 57 133 28 4 44 -1 84
-27 65 -43 109 -43 148 0 44 49 39 94 -16 147 -25 23 -60 48 -79 55 -32 11
-35 16 -40 63 -3 38 -11 55 -31 73 -29 25 -87 31 -119 12z"/>
<path d="M1358 4292 c-15 -9 -67 -49 -116 -89 l-90 -71 -6 48 c-12 93 -105
132 -167 71 -29 -29 -29 -30 -29 -155 l0 -125 -174 -140 c-95 -77 -176 -147
-180 -156 -14 -36 -5 -75 23 -107 37 -41 82 -43 140 -5 22 15 43 27 46 27 3 0
5 -157 5 -349 l0 -350 24 -28 24 -28 538 -3 c365 -2 547 1 564 8 58 24 60 35
60 415 l0 346 38 -29 c48 -38 77 -44 119 -27 23 10 39 26 49 50 30 73 30 73
-392 409 -414 329 -414 329 -476 288z m267 -378 l195 -156 0 -364 0 -364 -150
0 -150 0 0 127 c0 124 -1 128 -27 155 -54 57 -151 26 -167 -53 -3 -18 -6 -76
-6 -130 l0 -99 -155 0 -155 0 0 368 1 367 197 157 c108 86 202 155 209 153 7
-2 100 -75 208 -161z"/>
<path d="M1879 1895 c-156 -38 -250 -104 -419 -295 -72 -81 -143 -156 -158
-167 -41 -30 -103 -59 -141 -67 -23 -4 -214 22 -552 74 -376 58 -524 77 -542
71 -33 -13 -67 -58 -67 -90 0 -33 33 -87 57 -95 17 -5 922 -147 1028 -161 69
-9 180 16 257 57 67 35 143 107 303 282 112 122 160 158 255 187 62 19 91 19
642 17 l576 -3 44 -30 c52 -36 98 -120 98 -178 0 -89 -47 -170 -121 -207 -36
-19 -61 -20 -451 -21 -292 0 -423 -4 -448 -12 -49 -17 -76 -72 -60 -122 22
-67 7 -65 497 -65 482 0 485 0 583 59 25 15 288 126 585 246 516 210 543 220
605 220 140 -1 242 -105 241 -246 0 -96 -49 -173 -136 -217 -86 -43 -1467
-622 -1531 -642 -38 -12 -109 -31 -159 -43 -89 -21 -104 -21 -1448 -27 l-1359
-5 -29 -33 c-16 -18 -29 -44 -29 -58 0 -33 25 -81 49 -94 13 -7 451 -10 1332
-10 1406 0 1400 0 1601 51 118 29 187 56 638 246 1152 486 1076 451 1149 528
150 159 166 398 37 573 -108 146 -294 213 -466 167 -30 -8 -239 -91 -465 -184
l-410 -170 -7 85 c-12 158 -96 282 -236 351 l-76 38 -605 2 c-484 1 -617 -1
-662 -12z"/>
</g>
</svg>
