<?xml version="1.0" standalone="no"?>
<!DOCTYPE svg PUBLIC "-//W3C//DTD SVG 20010904//EN"
 "http://www.w3.org/TR/2001/REC-SVG-20010904/DTD/svg10.dtd">
<svg version="1.0" xmlns="http://www.w3.org/2000/svg"
 width="512.000000pt" height="512.000000pt" viewBox="0 0 512.000000 512.000000"
 preserveAspectRatio="xMidYMid meet">

<g transform="translate(0.000000,512.000000) scale(0.100000,-0.100000)"
fill="#000000" stroke="none">
<path d="M1770 4609 c-87 -13 -217 -59 -286 -100 -78 -47 -173 -129 -209 -179
l-30 -41 -82 5 c-270 17 -524 -77 -713 -264 -186 -183 -273 -396 -273 -665 -1
-103 4 -149 22 -220 39 -153 111 -289 212 -399 l48 -53 -79 -304 c-44 -167
-80 -310 -80 -316 0 -7 18 -53 40 -102 22 -49 40 -93 40 -97 0 -5 -37 -34 -81
-64 -45 -30 -85 -63 -90 -72 -16 -31 -9 -64 32 -152 22 -48 39 -89 37 -91 -1
-1 -37 -24 -78 -50 -41 -26 -81 -54 -87 -63 -22 -27 -15 -66 26 -156 l40 -85
-76 -41 c-84 -45 -102 -63 -103 -100 0 -29 232 -467 262 -492 11 -10 29 -18
40 -18 24 0 433 235 469 270 23 21 58 135 249 805 123 429 229 801 237 827 13
46 13 46 85 68 233 71 450 263 562 496 l39 80 74 12 c40 6 101 23 135 36 34
14 63 24 65 23 1 -2 11 -97 22 -211 17 -178 23 -216 45 -260 20 -41 177 -203
768 -793 650 -650 747 -743 773 -743 26 0 108 79 648 618 340 339 625 629 633
644 8 15 14 37 14 50 0 17 -188 211 -722 746 -398 398 -742 737 -765 753 -24
16 -60 36 -82 43 -21 8 -225 31 -452 51 -228 20 -425 38 -438 41 -13 3 -26 14
-29 27 -13 50 -94 196 -142 254 -99 123 -257 223 -413 263 -94 24 -222 32
-307 19z m204 -164 c121 -12 287 -100 371 -197 40 -48 99 -141 109 -175 6 -18
1 -23 -41 -37 -101 -34 -197 -135 -228 -239 -19 -63 -19 -151 0 -332 8 -77 15
-148 15 -158 0 -22 -103 -73 -166 -83 l-41 -6 9 63 c12 82 3 212 -22 317 -62
259 -243 483 -488 604 -78 39 -81 42 -66 60 57 62 194 144 284 168 52 15 156
28 185 24 11 -2 46 -5 79 -9z m-838 -357 c-8 -18 -19 -56 -26 -85 -10 -46 -16
-53 -46 -63 -58 -19 -140 -103 -164 -168 -41 -108 -16 -225 67 -304 115 -111
280 -114 397 -7 147 134 122 369 -48 460 -25 13 -46 29 -46 35 0 16 29 107 39
123 11 18 152 -48 238 -112 120 -89 228 -253 269 -407 19 -70 26 -271 11 -324
-8 -28 -9 -28 -60 -22 -68 9 -167 50 -242 98 -47 31 -66 38 -90 34 -54 -11
-83 -75 -55 -126 21 -40 207 -137 305 -160 28 -7 56 -14 63 -16 20 -6 -39
-110 -107 -192 -110 -130 -239 -213 -396 -252 -44 -11 -88 -29 -98 -39 -12
-11 -102 -310 -257 -850 -131 -458 -242 -837 -247 -842 -23 -23 -299 -177
-305 -171 -4 4 -38 64 -77 135 l-69 127 70 41 c89 52 108 72 108 109 0 17 -18
66 -40 110 -22 44 -40 83 -40 87 0 5 32 28 71 52 126 78 132 96 69 221 -22 44
-40 83 -40 87 0 5 28 26 63 47 136 86 141 102 70 258 -26 57 -46 110 -46 119
1 9 38 156 82 327 47 181 78 318 74 329 -3 10 -43 57 -88 104 -95 100 -154
207 -186 338 -18 70 -21 106 -17 210 4 108 9 139 35 214 40 113 83 184 163
270 143 153 324 235 522 236 l87 1 -13 -32z m1874 -239 c293 -26 468 -46 491
-56 24 -10 262 -241 727 -706 l692 -692 -548 -548 -547 -547 -696 697 c-445
446 -699 707 -702 724 -4 14 -27 240 -52 502 -50 527 -50 527 8 594 44 50 85
73 132 73 22 0 245 -18 495 -41z m-1756 -90 c61 -53 58 -130 -6 -184 -21 -17
-42 -25 -69 -25 -80 0 -129 49 -129 131 0 33 6 47 34 75 30 30 40 34 85 34 42
0 56 -5 85 -31z"/>
<path d="M3544 3091 c-21 -16 -126 -116 -231 -223 -175 -177 -193 -198 -193
-229 0 -68 59 -106 117 -75 15 8 121 109 236 224 192 193 207 212 207 245 0
27 -7 41 -31 61 -39 33 -57 33 -105 -3z"/>
<path d="M3814 2428 c-123 -121 -225 -232 -229 -245 -14 -59 53 -113 111 -88
16 7 125 109 242 227 234 236 238 243 183 299 -56 56 -62 52 -307 -193z"/>
</g>
</svg>
