<?xml version="1.0" standalone="no"?>
<!DOCTYPE svg PUBLIC "-//W3C//DTD SVG 20010904//EN"
 "http://www.w3.org/TR/2001/REC-SVG-20010904/DTD/svg10.dtd">
<svg version="1.0" xmlns="http://www.w3.org/2000/svg"
 width="512.000000pt" height="512.000000pt" viewBox="0 0 512.000000 512.000000"
 preserveAspectRatio="xMidYMid meet">

<g transform="translate(0.000000,512.000000) scale(0.100000,-0.100000)"
fill="#000000" stroke="none">
<path d="M2232 3934 l-774 -444 -608 0 c-365 0 -629 -4 -661 -10 -73 -14 -127
-53 -161 -119 l-28 -53 0 -698 0 -698 28 -53 c34 -66 88 -105 161 -119 31 -6
253 -10 532 -10 l479 0 0 -425 0 -425 -580 0 -579 0 -21 -22 c-37 -40 -21 -97
34 -118 38 -14 4974 -14 5012 0 55 21 71 78 34 118 -20 21 -27 22 -250 22
l-230 0 0 1000 c0 550 2 1000 4 1000 3 0 47 -25 100 -55 109 -63 144 -69 175
-29 20 25 21 39 21 264 0 212 -2 240 -17 258 -10 12 -124 81 -253 155 -129 74
-538 308 -908 521 -510 292 -681 386 -705 385 -23 0 -247 -124 -805 -445z
m1673 -208 l860 -493 3 -131 3 -131 -458 263 c-252 144 -636 365 -853 489
-235 135 -406 227 -421 227 -15 0 -192 -95 -436 -235 l-410 -235 -218 0 c-120
0 -215 3 -211 8 11 11 1260 730 1271 731 6 1 397 -221 870 -493z m-150 -344
l710 -408 0 -1045 0 -1044 -420 0 -420 0 -3 657 -2 657 -26 20 c-26 20 -39 21
-335 21 l-309 0 0 534 0 534 -28 53 c-17 34 -44 65 -71 84 -42 29 -45 30 -194
35 l-152 5 265 152 c146 84 267 152 270 152 3 0 325 -183 715 -407z m-975 -74
c20 -21 20 -31 20 -697 -1 -741 3 -703 -61 -721 -46 -13 -2482 -13 -2528 0
-64 18 -60 -20 -61 721 0 666 0 676 20 697 l21 22 1284 0 1284 0 21 -22z m690
-1823 l0 -605 -430 0 -430 0 0 425 0 425 49 0 c135 0 217 40 263 129 25 47 28
64 28 142 l0 89 260 0 260 0 0 -605z m-1870 -180 l0 -425 -125 0 -125 0 0 425
0 425 125 0 125 0 0 -425z m858 3 l-3 -423 -352 -3 -353 -2 0 425 0 425 355 0
355 0 -2 -422z"/>
<path d="M537 2950 c-161 -49 -189 -294 -44 -384 39 -24 61 -30 137 -35 97 -7
110 -14 110 -62 0 -50 -24 -59 -164 -59 -70 0 -136 -4 -146 -10 -47 -25 -38
-123 13 -135 14 -4 87 -5 163 -3 162 4 199 17 249 87 27 39 30 50 30 121 0 71
-3 82 -30 121 -45 63 -101 89 -195 89 -80 0 -97 8 -113 53 -7 19 8 56 27 69 6
4 70 8 142 8 117 0 132 2 152 20 14 14 22 33 22 55 0 22 -8 41 -22 55 -20 18
-34 20 -162 19 -78 0 -154 -5 -169 -9z"/>
<path d="M1152 2943 c-13 -11 -60 -129 -127 -314 -101 -279 -107 -298 -94
-325 19 -38 62 -53 96 -34 29 16 36 27 58 83 l15 37 99 0 98 0 18 -47 c29 -81
76 -104 129 -62 16 13 26 30 26 47 0 15 -45 153 -101 307 -104 291 -123 325
-173 325 -13 0 -33 -8 -44 -17z m72 -347 c9 -27 16 -51 16 -53 0 -2 -18 -3
-40 -3 -22 0 -40 3 -40 7 0 21 35 112 41 106 3 -5 14 -30 23 -57z"/>
<path d="M1525 2935 l-25 -24 0 -301 0 -301 25 -24 c24 -25 25 -25 223 -25
186 0 201 1 226 21 36 28 36 80 0 108 -24 19 -40 21 -175 21 l-149 0 0 254 0
255 -26 20 c-35 28 -69 26 -99 -4z"/>
<path d="M2082 2937 c-22 -23 -22 -29 -22 -328 l0 -306 23 -21 c22 -21 32 -22
223 -22 212 1 224 3 243 51 11 30 -8 83 -34 93 -9 3 -82 6 -161 6 l-144 0 0
59 0 59 150 4 c138 3 151 5 171 25 27 27 29 75 4 103 -17 18 -30 20 -172 20
l-153 0 0 65 0 65 148 0 c157 1 173 5 191 51 11 30 -8 83 -34 93 -9 3 -105 6
-214 6 -194 0 -198 0 -219 -23z"/>
<path d="M3276 1599 c-25 -19 -26 -25 -26 -110 0 -103 15 -129 73 -129 50 0
70 28 75 105 5 78 -10 128 -44 144 -35 16 -47 14 -78 -10z"/>
</g>
</svg>
