<?xml version="1.0" standalone="no"?>
<!DOCTYPE svg PUBLIC "-//W3C//DTD SVG 20010904//EN"
 "http://www.w3.org/TR/2001/REC-SVG-20010904/DTD/svg10.dtd">
<svg version="1.0" xmlns="http://www.w3.org/2000/svg"
 width="512.000000pt" height="512.000000pt" viewBox="0 0 512.000000 512.000000"
 preserveAspectRatio="xMidYMid meet">

<g transform="translate(0.000000,512.000000) scale(0.100000,-0.100000)"
fill="#000000" stroke="none">
<path d="M1140 5113 c-484 -54 -904 -390 -1068 -853 -71 -203 -67 -93 -67
-1700 0 -1374 1 -1449 19 -1530 113 -515 491 -893 1006 -1006 81 -18 156 -19
1530 -19 1374 0 1449 1 1530 19 515 113 893 491 1006 1006 18 81 19 156 19
1530 0 1374 -1 1449 -19 1530 -113 514 -475 878 -1001 1007 -64 15 -188 17
-1495 18 -784 1 -1441 0 -1460 -2z m2865 -248 c107 -17 203 -49 305 -100 102
-51 151 -86 242 -173 172 -165 273 -353 313 -586 23 -133 23 -2759 0 -2892
-20 -113 -47 -198 -98 -299 -50 -101 -93 -161 -182 -253 -160 -167 -349 -267
-579 -307 -130 -22 -2754 -23 -2891 0 -227 37 -422 141 -587 313 -87 91 -122
140 -173 242 -51 102 -83 198 -100 305 -22 134 -22 2756 0 2890 36 222 136
414 296 572 122 120 256 202 412 253 148 48 137 48 1587 49 1155 1 1379 -1
1455 -14z"/>
<path d="M1240 3280 l0 -600 120 0 120 0 2 395 3 395 995 -995 995 -995 -398
0 -397 0 0 -120 0 -120 600 0 600 0 0 600 0 600 -120 0 -120 0 0 -397 0 -398
-995 995 -995 995 395 3 395 2 0 120 0 120 -600 0 -600 0 0 -600z"/>
</g>
</svg>
